# xmcd
#
# Track frame offsets: 
#        182
#        15997
#        34477
#        50527
#        70870
#        91810
#        103177
#        118277
#        134732
#        155830
#
# Disc length: 2302 seconds
#
# Revision: 3
# Processed by: cddbd v1.5.2PL0 Copyright (c) Steve Scherf et al.
# Submitted via: ExactAudioCopy v1.2
#
DISCID=8f08fc0a
DTITLE=George Strait - One Step At A Time
DYEAR=1998
DGENRE=Country
TTITLE0=I Just Want to Dance With You
TTITLE1=One Step At A Time
TTITLE2=True
TTITLE3=Remember The Alamo
TTITLE4=Maria
TTITLE5=We Really Shouldn't Be Doing This
TTITLE6=Why Not Now
TTITLE7=That's The Breaks
TTITLE8=Neon Row
TTITLE9=You Haven't Left Me Yet
EXTD=
EXTT0=
EXTT1=
EXTT2=
EXTT3=
EXTT4=
EXTT5=
EXTT6=
EXTT7=
EXTT8=
EXTT9=
PLAYORDER=
